# xmcd CD database file
#
# Track frame offsets:
#	150
#	18407
#	40100
#	56637
#	76862
#	94272
#	112392
#	128762
#	146397
#	165817
#	186397
#	210945
#	236795
#	258847
#	281050
#	301775
#
# Disc length: 4304 seconds
#
# Revision: 7
# Processed by: cddbd v1.5PL3 Copyright (c) Steve Scherf et al.
# Submitted via: CDex 1.50Beta5
#
DISCID=d410ce10
DTITLE=都はるみ - もういちど
DYEAR=1900
DGENRE=Country
TTITLE0=アンコ椿は恋の花
TTITLE1=涙の連絡船
TTITLE2=好きになった人
TTITLE3=おんなの海峡
TTITLE4=北の宿から
TTITLE5=大阪しぐれ
TTITLE6=浮草ぐらし
TTITLE7=ふたりの大阪
TTITLE8=浪花恋しぐれ
TTITLE9=夫婦坂
TTITLE10=千年の古都
TTITLE11=古都遺遥
TTITLE12=草枕
TTITLE13=ふるさとよ
TTITLE14=アジア伝説
TTITLE15=もういちど
EXTD=
EXTT0=
EXTT1=
EXTT2=
EXTT3=
EXTT4=
EXTT5=
EXTT6=
EXTT7=
EXTT8=
EXTT9=
EXTT10=
EXTT11=
EXTT12=
EXTT13=
EXTT14=
EXTT15=
PLAYORDER=
